<svg xmlns="http://www.w3.org/2000/svg" viewBox="0 0 740 130" role="img" aria-labelledby="seda-title">
  <title id="seda-title">SEDA International Education</title>
  <defs>
    <style>
      .brand-red { fill: #c90016; }
      .brand-red-stroke { stroke: #c90016; }
      .brand-gold { fill: #c6923a; }
      .brand-gold-stroke { stroke: #c6923a; }
      .gray { fill: #62676d; }
      .latin {
        font-family: "Times New Roman", "Georgia", serif;
        font-weight: 400;
        letter-spacing: 0;
      }
      .chinese {
        font-family: "PingFang SC", "Noto Sans SC", "Microsoft YaHei", sans-serif;
        font-weight: 700;
        letter-spacing: 0;
      }
    </style>
  </defs>

  <g aria-label="SEDA" class="brand-red-stroke" fill="none" stroke-width="10" stroke-linecap="square" stroke-linejoin="miter">
    <path d="M108 44H55C45 44 39 50 39 60C39 70 45 76 55 76H99C111 76 119 84 119 96C119 108 111 116 99 116H39"/>
    <path d="M137 44H202M137 80H193M137 116H202"/>
    <path d="M222 44H267C289 44 306 60 306 80C306 100 289 116 267 116H222V44Z"/>
    <path d="M318 116L356 44L394 116"/>
  </g>
  <polygon class="brand-gold" points="346,105 356,87 366,105"/>

  <line x1="408" y1="44" x2="408" y2="116" class="brand-gold-stroke" stroke-width="2"/>

  <text x="422" y="58" class="brand-red latin" font-size="24" textLength="300" lengthAdjust="spacingAndGlyphs">SINGAPORE EDUCATION</text>
  <line x1="422" y1="72" x2="722" y2="72" class="brand-gold-stroke" stroke-width="1.5"/>
  <text x="422" y="116" class="brand-red chinese" font-size="32" textLength="300" lengthAdjust="spacingAndGlyphs">新加坡择校网</text>
</svg>
